<?xml version="1.0" standalone="no"?>
<!DOCTYPE svg PUBLIC "-//W3C//DTD SVG 20010904//EN"
 "http://www.w3.org/TR/2001/REC-SVG-20010904/DTD/svg10.dtd">
<svg version="1.0" xmlns="http://www.w3.org/2000/svg"
 width="16.000000pt" height="16.000000pt" viewBox="0 0 16.000000 16.000000"
 preserveAspectRatio="xMidYMid meet">
<metadata>
Created by potrace 1.11, written by Peter Selinger 2001-2013
</metadata>
<g transform="translate(0.000000,16.000000) scale(0.003556,-0.003556)"
fill="#000000" stroke="none">
<path d="M259 4013 c-1 -37 -1 -3444 0 -3504 l1 -46 135 0 135 0 1 56 c0 31 0
683 1 1449 0 1287 1 1392 17 1392 11 0 66 -98 185 -332 93 -183 228 -450 301
-593 199 -391 419 -823 650 -1280 312 -615 345 -679 357 -686 6 -4 36 -7 67
-7 l57 0 56 112 c31 61 359 718 728 1459 370 742 675 1346 678 1342 4 -4 7
-660 7 -1458 l0 -1452 305 -1 305 -1 0 1786 0 1786 -305 3 -305 2 -177 -357
c-157 -320 -633 -1280 -1035 -2091 -80 -161 -150 -291 -155 -290 -10 4 -99
179 -818 1603 -189 374 -395 782 -458 908 l-115 227 -309 0 -308 0 -1 -27z"/>
</g>
</svg>
