<?xml version="1.0" standalone="no"?>
<!DOCTYPE svg PUBLIC "-//W3C//DTD SVG 20010904//EN"
 "http://www.w3.org/TR/2001/REC-SVG-20010904/DTD/svg10.dtd">
<svg version="1.0" xmlns="http://www.w3.org/2000/svg"
 width="16.000000pt" height="16.000000pt" viewBox="0 0 16.000000 16.000000"
 preserveAspectRatio="xMidYMid meet">
<metadata>
Created by potrace 1.11, written by Peter Selinger 2001-2013
</metadata>
<g transform="translate(0.000000,16.000000) scale(0.002645,-0.002645)"
fill="#000000" stroke="none">
<path d="M1200 2940 l0 -1680 130 0 130 0 0 1360 c0 1081 3 1360 13 1360 6 0
323 -612 702 -1360 l690 -1360 65 0 66 0 679 1367 680 1366 5 -1364 5 -1364
288 -3 287 -2 0 1680 0 1680 -284 0 c-215 0 -286 -3 -293 -12 -5 -7 -292 -585
-639 -1285 -346 -700 -633 -1271 -639 -1269 -5 1 -300 578 -655 1282 l-647
1279 -291 3 -292 2 0 -1680z"/>
</g>
</svg>
