<?xml version="1.0" standalone="no"?>
<!DOCTYPE svg PUBLIC "-//W3C//DTD SVG 20010904//EN"
 "http://www.w3.org/TR/2001/REC-SVG-20010904/DTD/svg10.dtd">
<svg version="1.0" xmlns="http://www.w3.org/2000/svg"
 width="16.000000pt" height="16.000000pt" viewBox="0 0 16.000000 16.000000"
 preserveAspectRatio="xMidYMid meet">
<metadata>
Created by potrace 1.11, written by Peter Selinger 2001-2013
</metadata>
<g transform="translate(0.000000,16.000000) scale(0.002667,-0.002667)"
fill="#000000" stroke="none">
<path d="M1180 2905 l0 -1675 130 0 130 0 0 1361 c0 1217 2 1360 15 1357 9 -2
296 -555 704 -1358 l688 -1355 62 -3 62 -3 682 1370 c375 754 685 1371 690
1371 4 0 7 -616 7 -1370 l0 -1370 285 0 285 0 0 1675 0 1675 -287 0 -288 0
-634 -1280 c-349 -704 -639 -1280 -645 -1280 -6 0 -301 575 -656 1278 l-645
1277 -292 3 -293 2 0 -1675z"/>
</g>
</svg>
